<?xml version="1.0" encoding="UTF-8"?>
<svg version="1.1" xmlns="http://www.w3.org/2000/svg" width="512" height="512">
<path d="M0 0 C0.80259252 -0.00465992 1.60518503 -0.00931984 2.43209854 -0.01412097 C5.12040175 -0.02606801 7.80819929 -0.0166767 10.49650669 -0.00736332 C12.44375544 -0.01153636 14.39100175 -0.01701371 16.33824354 -0.02368313 C21.68857441 -0.03816029 27.03875153 -0.03388589 32.3890909 -0.02651632 C38.15946906 -0.0217926 43.92981357 -0.03428742 49.70018101 -0.04453373 C61.00439858 -0.06174248 72.30856062 -0.06255746 83.61278789 -0.05732083 C92.79924851 -0.05328189 101.98569269 -0.0547194 111.17215252 -0.06006908 C112.47886481 -0.06081751 113.7855771 -0.06156593 115.13188674 -0.06233703 C117.78633416 -0.06386848 120.44078157 -0.06540683 123.09522898 -0.066952 C140.92132384 -0.07701147 158.74741284 -0.08094226 176.57350922 -0.07332611 C177.2705554 -0.07302894 177.96760158 -0.07273176 178.68577038 -0.07242559 C184.34628016 -0.06997665 190.00678986 -0.06736506 195.66729957 -0.06474145 C217.74838272 -0.05463842 239.82938983 -0.0629955 261.91046238 -0.086236 C286.71966637 -0.11230564 311.52882413 -0.12510786 336.33804232 -0.11804825 C349.47380341 -0.11455203 362.60950205 -0.11681475 375.74525356 -0.13429928 C386.92698376 -0.14899808 398.10860753 -0.14968703 409.29033559 -0.13222837 C414.99661784 -0.12369706 420.70270979 -0.12162088 426.40898228 -0.13687992 C431.63175686 -0.15067331 436.85417714 -0.14603278 442.07693095 -0.12664068 C443.96716004 -0.12286393 445.85741716 -0.12585063 447.74762141 -0.13625234 C450.31663661 -0.14938518 452.88442223 -0.13787252 455.4533844 -0.12025452 C456.55473541 -0.13473028 456.55473541 -0.13473028 457.67833593 -0.14949849 C464.22917411 -0.05722656 469.32783807 2.23114835 474.25055027 6.52875423 C475.19801121 7.63090267 475.19801121 7.63090267 476.16461277 8.75531673 C477.13527683 9.8497308 477.13527683 9.8497308 478.12555027 10.96625423 C481.36443731 15.66492135 482.0398311 20.23635908 482.04967499 25.85348034 C482.06027337 27.79020874 482.06027337 27.79020874 482.07108587 29.76606297 C482.0688347 31.19178215 482.06638822 32.61750102 482.06376743 34.04321957 C482.06822122 35.56332498 482.07353572 37.08342808 482.07963616 38.60352778 C482.0938097 42.77786421 482.09547957 46.95212616 482.09503925 51.1264832 C482.09668801 55.62969422 482.10975561 60.1328746 482.12123203 64.6360693 C482.144076 74.48111235 482.1520019 84.32613384 482.15705848 94.1711998 C482.160316 100.31925496 482.16683879 106.46730387 482.17405987 112.61535549 C482.1936245 129.64018839 482.21002968 146.66501548 482.2129364 163.68986034 C482.21312397 164.77918255 482.21331154 165.86850476 482.21350479 166.99083672 C482.21387104 169.19911877 482.21423474 171.40740082 482.21459591 173.61568287 C482.21477872 174.71186458 482.21496153 175.8080463 482.21514988 176.93744564 C482.2154207 178.58372675 482.2154207 178.58372675 482.215697 180.26326606 C482.21923899 198.04883084 482.24626358 215.83427458 482.28364777 233.61979738 C482.32172925 251.88330253 482.34109386 270.1467476 482.34139591 288.41029334 C482.34198049 298.6632935 482.35047315 308.91614923 482.37939358 319.16911221 C482.40390523 327.89914384 482.41119174 336.62897836 482.39614605 345.3590351 C482.38897645 349.81199586 482.38983671 354.26456735 482.41255665 358.71748447 C482.4331746 362.79756575 482.43052044 366.8769592 482.4096818 370.95703325 C482.40619227 372.4294364 482.41107424 373.90188947 482.42538624 375.3742272 C482.50416011 384.03964585 482.00810998 391.19143999 476.78961277 398.38031673 C467.6098652 407.2938254 457.72029157 407.81488875 445.56109715 407.72089291 C444.02299103 407.72004567 442.48488371 407.72052367 440.9467783 407.72222042 C436.7902523 407.72307802 432.63398821 407.70549055 428.47752285 407.68449855 C424.1266918 407.6656924 419.77585417 407.66397821 415.42498875 407.66042233 C407.19452673 407.6511134 398.96418484 407.62651528 390.73377562 407.59637386 C381.36014575 407.5627939 371.98651002 407.54633481 362.61283493 407.53128755 C343.33835954 407.49996466 324.06399583 407.44722666 304.78961277 407.38031673 C304.83417277 411.48867179 304.90441955 415.59575741 304.9971323 419.70331478 C305.02512648 421.09674892 305.04644683 422.49033549 305.06060886 423.88397884 C305.14949989 432.14195505 305.59455331 439.09782693 309.78961277 446.38031673 C310.12638035 447.09631039 310.46314793 447.81230404 310.81012058 448.54999447 C312.10482836 450.96934247 313.2744863 451.33234737 315.78961277 452.38031673 C316.75898777 452.89594173 317.72836277 453.41156673 318.72711277 453.94281673 C324.15701645 456.49154703 329.30967883 456.52615201 335.2290659 456.52216244 C336.06722843 456.52563686 336.90539097 456.52911129 337.76895237 456.532691 C339.58534683 456.54002815 341.40175014 456.54538438 343.21815586 456.54898167 C346.1038232 456.55618021 348.98932372 456.57187449 351.87493992 456.59032345 C360.07856983 456.64261589 368.28210903 456.69069287 376.48590183 456.70624447 C381.51042503 456.71639158 386.53452823 456.74588802 391.55888462 456.78756428 C393.46279297 456.79978691 395.36676088 456.80501171 397.27070713 456.80276585 C415.17319265 456.78685251 429.50244756 459.4431306 443.10211277 472.19281673 C451.47269115 481.07797985 455.55879362 491.22935927 456.87164402 503.21625423 C456.78961277 505.38031673 456.78961277 505.38031673 454.78961277 508.38031673 C452.27177049 508.68093586 449.99820231 508.78240949 447.47722816 508.75784016 C446.3278649 508.76438064 446.3278649 508.76438064 445.15528217 508.77105325 C442.56056618 508.78209349 439.96637232 508.77154713 437.37165928 508.76126766 C435.50353389 508.76472078 433.63541054 508.769483 431.76729149 508.7754494 C426.61263422 508.78803679 421.45814239 508.78175403 416.30348432 508.77249074 C410.75261461 508.76573205 405.20177433 508.77616564 399.65091038 508.7844305 C388.76812303 508.79780442 377.88539759 508.79487378 367.00260777 508.78619258 C358.16114158 508.77943044 349.31969279 508.77849293 340.47822475 508.78176403 C338.59407251 508.78245358 338.59407251 508.78245358 336.67185659 508.78315706 C334.12047585 508.78411619 331.56909511 508.78508883 329.01771437 508.78607483 C305.7491083 508.79439514 282.48053855 508.78575138 259.21194016 508.77004704 C237.95745809 508.75581116 216.70302992 508.75708181 195.44854832 508.77143002 C171.58651346 508.78748453 147.72450836 508.79381374 123.86246628 508.78459322 C121.31991637 508.78363753 118.77736646 508.78269442 116.23481655 508.78176403 C114.98368671 508.7813012 113.73255687 508.78083838 112.44351401 508.78036153 C103.60881049 508.77776664 94.77412604 508.78215338 85.93942547 508.78920269 C75.17831759 508.79759996 64.4172754 508.79537506 53.65617508 508.77936046 C48.1612047 508.77145355 42.66634399 508.76842714 37.17137432 508.77830791 C32.14732185 508.78720553 27.12348138 508.78240395 22.09944832 508.76637526 C20.27578117 508.7630064 18.45209635 508.7647683 16.62844045 508.77200262 C14.16131366 508.78104358 11.69492582 508.77185261 9.22783852 508.75784016 C8.15036489 508.7683754 8.15036489 508.7683754 7.05112413 508.77912349 C4.13804529 508.74574959 2.24215201 508.70645933 -0.1618486 506.97390902 C-1.94469332 504.26430203 -1.25120191 502.05240593 -0.77679348 498.96625423 C2.23815177 485.20146972 9.38428761 473.71934537 20.78961277 465.38031673 C30.10595019 459.7784932 38.83613229 457.07373619 49.63311863 457.1090765 C50.90065731 457.10123638 50.90065731 457.10123638 52.19380283 457.09323788 C54.01505221 457.08305562 55.8363302 457.07722764 57.65760708 457.07535648 C60.54667995 457.07166909 63.43541678 457.0548784 66.32441807 457.03459835 C74.53369986 456.97940931 82.74302981 456.94852317 90.95245457 456.92401791 C95.98682818 456.9080899 101.02096083 456.87782046 106.05520916 456.83925343 C107.96522103 456.82765444 109.87527606 456.82167352 111.78532314 456.8215723 C114.46270709 456.82137893 117.13943159 456.80301739 119.81671238 456.7809515 C120.59465153 456.78552868 121.37259068 456.79010586 122.17410374 456.79482174 C129.73378235 456.69642868 137.21586765 454.73031558 143.23321629 449.98114681 C150.74973075 442.25004323 150.56396266 432.32232031 150.60211277 422.25531673 C150.62530468 420.80736318 150.65067961 419.35944288 150.67828465 417.91156673 C150.74053509 414.40117509 150.77334364 410.89125825 150.78961277 407.38031673 C149.99392667 407.38308211 149.19824057 407.38584749 148.37844276 407.38869667 C128.99775056 407.45501393 109.61708107 407.50462525 90.23629951 407.53575325 C80.86381099 407.55120748 71.49139831 407.57226937 62.11895847 407.60663509 C53.94782186 407.63658168 45.7767402 407.65590223 37.60555023 407.66258222 C33.28088002 407.66648557 28.95636698 407.67562882 24.63174725 407.6975069 C20.55650898 407.71795524 16.48149178 407.72413376 12.40620708 407.71963978 C10.91513459 407.72046126 9.42405426 407.72637709 7.93302631 407.73793316 C-2.16025357 407.81228563 -11.9028211 407.74311695 -19.53403056 400.27853364 C-26.65466208 392.21551021 -26.92862555 383.49467603 -26.83857632 373.18497372 C-26.843628 371.65586012 -26.85086162 370.12675246 -26.86007446 368.59765828 C-26.8789351 364.41691332 -26.86679833 360.23675643 -26.84935153 356.0560267 C-26.83594755 351.53927564 -26.85142535 347.02260893 -26.86317348 342.50586605 C-26.88153096 333.66649904 -26.87305079 324.82735341 -26.85508526 315.98799334 C-26.84104861 308.80388301 -26.83716875 301.61983269 -26.84052753 294.43570995 C-26.84100498 293.41249098 -26.84148242 292.389272 -26.84197433 291.33504639 C-26.84300068 289.25629756 -26.84405603 287.17754875 -26.84514009 285.09879996 C-26.8537031 266.7272626 -26.83704413 248.35583202 -26.80731106 229.98432064 C-26.77846621 212.16135837 -26.77139464 194.33854986 -26.78680325 176.51557064 C-26.80356587 157.09986166 -26.80759963 137.68422564 -26.79009289 118.26851475 C-26.78824852 116.19810717 -26.78641379 114.12769958 -26.78458881 112.05729198 C-26.78367672 111.03864676 -26.78276463 110.02000153 -26.78182491 108.97048827 C-26.77622055 101.794645 -26.77952568 94.61883737 -26.78613377 87.44299603 C-26.79386665 78.69872775 -26.78711566 69.95461081 -26.76195873 61.21037303 C-26.74946367 56.74959994 -26.74331731 52.28906246 -26.75450039 47.82828045 C-26.76454729 43.74358507 -26.75607379 39.65935938 -26.73291921 35.57472111 C-26.7277636 34.09844852 -26.72931517 32.62213378 -26.73831386 31.14587961 C-26.79023209 21.85449199 -26.25074254 15.70153061 -20.53460598 8.17328548 C-19.99448879 7.6434808 -19.4543716 7.11367611 -18.89788723 6.56781673 C-18.36550442 6.02512142 -17.8331216 5.48242611 -17.28460598 4.92328548 C-11.8294728 0.86532389 -6.67324693 -0.06104198 0 0 Z M24.78961277 51.38031673 C24.78961277 134.87031673 24.78961277 218.36031673 24.78961277 304.38031673 C158.76961277 304.38031673 292.74961277 304.38031673 430.78961277 304.38031673 C430.78961277 220.89031673 430.78961277 137.40031673 430.78961277 51.38031673 C296.80961277 51.38031673 162.82961277 51.38031673 24.78961277 51.38031673 Z " fill="#000000" transform="translate(28.210387229919434,1.6196832656860352)"/>
</svg>
